<svg xmlns="http://www.w3.org/2000/svg" viewBox="0 0 100 100">
  <rect width="100" height="100" fill="#000000"/>
  <g fill="#ffffff">
    <!-- Moth body -->
    <ellipse cx="50" cy="50" rx="4" ry="18"/>

    <!-- Upper wings -->
    <path d="M 50 40 Q 35 30 25 35 Q 20 40 25 45 Q 35 48 50 45 Z" opacity="0.9"/>
    <path d="M 50 40 Q 65 30 75 35 Q 80 40 75 45 Q 65 48 50 45 Z" opacity="0.9"/>

    <!-- Lower wings -->
    <path d="M 50 50 Q 30 50 20 60 Q 18 65 22 68 Q 35 65 50 58 Z" opacity="0.8"/>
    <path d="M 50 50 Q 70 50 80 60 Q 82 65 78 68 Q 65 65 50 58 Z" opacity="0.8"/>

    <!-- Wing patterns -->
    <circle cx="30" cy="40" r="3" fill="#000000" opacity="0.3"/>
    <circle cx="70" cy="40" r="3" fill="#000000" opacity="0.3"/>
    <circle cx="28" cy="58" r="2" fill="#000000" opacity="0.3"/>
    <circle cx="72" cy="58" r="2" fill="#000000" opacity="0.3"/>

    <!-- Antennae -->
    <path d="M 48 32 Q 45 25 42 20" stroke="#ffffff" stroke-width="1" fill="none"/>
    <path d="M 52 32 Q 55 25 58 20" stroke="#ffffff" stroke-width="1" fill="none"/>
  </g>
</svg>


